<svg width="245" height="56" viewBox="0 0 245 56" fill="none" xmlns="http://www.w3.org/2000/svg">
<rect width="244.392" height="55.8609" rx="27.9305" fill="#E5E5E5"/>
<path d="M37.2125 13.9652V16.7583" stroke="black" stroke-width="2.79305" stroke-linecap="round" stroke-linejoin="round"/>
<path d="M28.8334 13.9652V16.7583" stroke="black" stroke-width="2.79305" stroke-linecap="round" stroke-linejoin="round"/>
<path d="M28.8334 15.3618H27.4369C26.6961 15.3618 25.9857 15.656 25.4619 16.1798C24.9381 16.7036 24.6438 17.414 24.6438 18.1548V23.7409C24.6438 25.9632 25.5266 28.0944 27.098 29.6658C28.6694 31.2372 30.8007 32.12 33.023 32.12C35.2452 32.12 37.3765 31.2372 38.9479 29.6658C40.5193 28.0944 41.4021 25.9632 41.4021 23.7409V18.1548C41.4021 17.414 41.1078 16.7036 40.584 16.1798C40.0602 15.656 39.3498 15.3618 38.609 15.3618H37.2125" stroke="black" stroke-width="2.79305" stroke-linecap="round" stroke-linejoin="round"/>
<path d="M33.0229 32.12C33.0229 34.3423 33.9057 36.4736 35.4771 38.045C37.0485 39.6164 39.1798 40.4992 41.4021 40.4992C43.6244 40.4992 45.7556 39.6164 47.327 38.045C48.8984 36.4736 49.7812 34.3423 49.7812 32.12V27.9305" stroke="black" stroke-width="2.79305" stroke-linecap="round" stroke-linejoin="round"/>
<path d="M49.7812 27.9305C51.3238 27.9305 52.5743 26.68 52.5743 25.1374C52.5743 23.5949 51.3238 22.3444 49.7812 22.3444C48.2387 22.3444 46.9882 23.5949 46.9882 25.1374C46.9882 26.68 48.2387 27.9305 49.7812 27.9305Z" stroke="black" stroke-width="2.79305" stroke-linecap="round" stroke-linejoin="round"/>
<path d="M75.8569 24.4814C75.7829 23.8241 75.4774 23.315 74.9404 22.9539C74.4035 22.5883 73.7277 22.4054 72.9131 22.4054C72.3299 22.4054 71.8254 22.498 71.3995 22.6832C70.9737 22.8637 70.6428 23.1136 70.4067 23.433C70.1753 23.7477 70.0596 24.1065 70.0596 24.5092C70.0596 24.847 70.1382 25.1386 70.2956 25.384C70.4576 25.6293 70.6682 25.8353 70.9274 26.0019C71.1913 26.1639 71.4736 26.3004 71.7745 26.4115C72.0753 26.518 72.3646 26.6059 72.6423 26.6754L74.0309 27.0364C74.4845 27.1475 74.9497 27.2979 75.4265 27.4877C75.9032 27.6774 76.3452 27.9274 76.7526 28.2375C77.1599 28.5476 77.4885 28.9318 77.7385 29.39C77.993 29.8483 78.1203 30.3968 78.1203 31.0355C78.1203 31.8409 77.912 32.556 77.4955 33.1809C77.0835 33.8058 76.4841 34.2987 75.6972 34.6597C74.915 35.0208 73.9684 35.2013 72.8576 35.2013C71.793 35.2013 70.8719 35.0323 70.0943 34.6945C69.3167 34.3566 68.708 33.8775 68.2683 33.2573C67.8286 32.6324 67.5856 31.8918 67.5393 31.0355H69.6916C69.7332 31.5493 69.8999 31.9774 70.1915 32.32C70.4877 32.6579 70.8649 32.9101 71.3232 33.0767C71.786 33.2387 72.2929 33.3197 72.8437 33.3197C73.45 33.3197 73.9893 33.2249 74.4614 33.0351C74.9381 32.8407 75.3131 32.5722 75.5861 32.2297C75.8592 31.8826 75.9958 31.4776 75.9958 31.0147C75.9958 30.5935 75.8754 30.2487 75.6347 29.9802C75.3987 29.7117 75.077 29.4896 74.6697 29.3137C74.267 29.1378 73.8111 28.9827 73.3019 28.8485L71.6217 28.3903C70.4831 28.0801 69.5805 27.6242 68.914 27.0225C68.2521 26.4208 67.9211 25.6247 67.9211 24.6341C67.9211 23.8149 68.1433 23.0997 68.5877 22.4888C69.032 21.8778 69.6337 21.4033 70.3928 21.0655C71.1519 20.7229 72.0082 20.5517 72.9617 20.5517C73.9245 20.5517 74.7738 20.7206 75.5098 21.0585C76.2504 21.3964 76.8336 21.8616 77.2594 22.454C77.6852 23.0419 77.9074 23.7177 77.9259 24.4814H75.8569ZM83.6209 35.2013C82.9451 35.2013 82.3341 35.0763 81.7879 34.8264C81.2417 34.5718 80.809 34.2038 80.4896 33.7224C80.1748 33.2411 80.0175 32.6509 80.0175 31.952C80.0175 31.3503 80.1332 30.855 80.3646 30.4662C80.5961 30.0774 80.9085 29.7696 81.3019 29.5428C81.6954 29.316 82.1351 29.1447 82.6211 29.029C83.1071 28.9133 83.6023 28.8253 84.1069 28.7652C84.7456 28.6911 85.264 28.6309 85.6621 28.5847C86.0602 28.5337 86.3494 28.4527 86.53 28.3417C86.7105 28.2306 86.8007 28.0501 86.8007 27.8001V27.7515C86.8007 27.1452 86.6295 26.6754 86.287 26.3421C85.9491 26.0088 85.4445 25.8422 84.7734 25.8422C84.0745 25.8422 83.5237 25.9973 83.121 26.3074C82.7229 26.6129 82.4475 26.9531 82.2948 27.328L80.3438 26.8836C80.5752 26.2356 80.9131 25.7126 81.3575 25.3145C81.8064 24.9118 82.3225 24.6202 82.9057 24.4397C83.4889 24.2546 84.1022 24.162 84.7456 24.162C85.1715 24.162 85.6227 24.2129 86.0995 24.3148C86.5809 24.412 87.0298 24.5925 87.4464 24.8563C87.8676 25.1201 88.2125 25.4974 88.4809 25.988C88.7494 26.474 88.8836 27.1058 88.8836 27.8834V34.9652H86.8563V33.5072H86.773C86.6387 33.7757 86.4374 34.0395 86.1689 34.2987C85.9005 34.5579 85.5556 34.7731 85.1344 34.9444C84.7132 35.1157 84.2087 35.2013 83.6209 35.2013ZM84.0722 33.535C84.6461 33.535 85.1367 33.4216 85.5441 33.1948C85.956 32.968 86.2684 32.6717 86.4814 32.3061C86.6989 31.9358 86.8077 31.54 86.8077 31.1188V29.7441C86.7336 29.8182 86.5901 29.8876 86.3772 29.9524C86.1689 30.0126 85.9305 30.0658 85.6621 30.1121C85.3936 30.1538 85.1321 30.1931 84.8775 30.2301C84.623 30.2625 84.41 30.2903 84.2388 30.3135C83.8361 30.3644 83.4681 30.45 83.1349 30.5703C82.8062 30.6907 82.5424 30.8643 82.3434 31.0911C82.149 31.3132 82.0518 31.6095 82.0518 31.9798C82.0518 32.4935 82.2415 32.8823 82.6211 33.1462C83.0006 33.4054 83.4843 33.535 84.0722 33.535ZM98.4041 30.5426V24.3009H100.487V34.9652H98.4458V33.1184H98.3347C98.0894 33.6877 97.6959 34.1622 97.1544 34.5417C96.6175 34.9166 95.9486 35.1041 95.1479 35.1041C94.4628 35.1041 93.8565 34.9537 93.3288 34.6528C92.8058 34.3473 92.3938 33.896 92.093 33.2989C91.7968 32.7018 91.6486 31.9636 91.6486 31.0841V24.3009H93.7246V30.8342C93.7246 31.5609 93.9259 32.1394 94.3286 32.5699C94.7313 33.0004 95.2543 33.2156 95.8977 33.2156C96.2865 33.2156 96.673 33.1184 97.0572 32.924C97.446 32.7296 97.7677 32.4357 98.0223 32.0422C98.2815 31.6488 98.4088 31.1489 98.4041 30.5426ZM95.2243 22.8776L96.8489 19.6769H99.0359L96.8836 22.8776H95.2243ZM107.269 35.1735C106.408 35.1735 105.639 34.9537 104.963 34.5139C104.292 34.0696 103.765 33.4378 103.38 32.6185C103.001 31.7946 102.811 30.8064 102.811 29.6539C102.811 28.5013 103.003 27.5154 103.387 26.6962C103.776 25.8769 104.309 25.2497 104.984 24.8146C105.66 24.3796 106.426 24.162 107.282 24.162C107.944 24.162 108.477 24.2731 108.879 24.4953C109.287 24.7128 109.601 24.9674 109.824 25.259C110.05 25.5506 110.226 25.8075 110.351 26.0297H110.476V20.7461H112.552V34.9652H110.525V33.3059H110.351C110.226 33.5327 110.046 33.7919 109.81 34.0835C109.578 34.3751 109.259 34.6296 108.852 34.8472C108.444 35.0647 107.917 35.1735 107.269 35.1735ZM107.727 33.4031C108.324 33.4031 108.828 33.2457 109.24 32.9309C109.657 32.6116 109.972 32.1695 110.185 31.6048C110.402 31.0401 110.511 30.3829 110.511 29.633C110.511 28.8925 110.404 28.2445 110.192 27.689C109.979 27.1336 109.666 26.7008 109.254 26.3907C108.842 26.0806 108.333 25.9255 107.727 25.9255C107.102 25.9255 106.581 26.0875 106.165 26.4115C105.748 26.7355 105.433 27.1776 105.22 27.7376C105.012 28.2977 104.908 28.9295 104.908 29.633C104.908 30.3459 105.014 30.9869 105.227 31.5562C105.44 32.1256 105.755 32.5769 106.172 32.9101C106.593 33.2387 107.111 33.4031 107.727 33.4031ZM120.111 35.1805C119.061 35.1805 118.156 34.956 117.397 34.507C116.642 34.0534 116.059 33.4169 115.647 32.5977C115.24 31.7738 115.036 30.8087 115.036 29.7025C115.036 28.6101 115.24 27.6474 115.647 26.8142C116.059 25.9811 116.633 25.3307 117.369 24.8632C118.109 24.3958 118.975 24.162 119.965 24.162C120.567 24.162 121.15 24.2615 121.715 24.4606C122.28 24.6596 122.787 24.972 123.236 25.3979C123.685 25.8237 124.039 26.3768 124.298 27.0572C124.557 27.733 124.687 28.5546 124.687 29.522V30.2579H116.209V28.7027H122.652C122.652 28.1565 122.541 27.6728 122.319 27.2516C122.097 26.8258 121.784 26.4902 121.382 26.2449C120.984 25.9996 120.516 25.8769 119.979 25.8769C119.396 25.8769 118.887 26.0204 118.452 26.3074C118.021 26.5897 117.688 26.96 117.452 27.4182C117.221 27.8719 117.105 28.3648 117.105 28.8971V30.1121C117.105 30.8249 117.23 31.4313 117.48 31.9312C117.734 32.4311 118.089 32.8129 118.542 33.0767C118.996 33.3359 119.526 33.4655 120.132 33.4655C120.525 33.4655 120.884 33.41 121.208 33.2989C121.532 33.1832 121.812 33.0119 122.048 32.7851C122.284 32.5583 122.465 32.2783 122.59 31.945L124.555 32.2991C124.397 32.8777 124.115 33.3845 123.708 33.8196C123.305 34.2501 122.798 34.5857 122.187 34.8264C121.581 35.0624 120.889 35.1805 120.111 35.1805ZM132.164 38.9644V24.3009H134.192V26.0297H134.365C134.485 25.8075 134.659 25.5506 134.886 25.259C135.113 24.9674 135.427 24.7128 135.83 24.4953C136.233 24.2731 136.765 24.162 137.427 24.162C138.288 24.162 139.056 24.3796 139.732 24.8146C140.408 25.2497 140.938 25.8769 141.322 26.6962C141.711 27.5154 141.905 28.5013 141.905 29.6539C141.905 30.8064 141.713 31.7946 141.329 32.6185C140.945 33.4378 140.417 34.0696 139.746 34.5139C139.075 34.9537 138.309 35.1735 137.448 35.1735C136.8 35.1735 136.27 35.0647 135.858 34.8472C135.451 34.6296 135.131 34.3751 134.9 34.0835C134.668 33.7919 134.49 33.5327 134.365 33.3059H134.24V38.9644H132.164ZM134.198 29.633C134.198 30.3829 134.307 31.0401 134.525 31.6048C134.742 32.1695 135.057 32.6116 135.469 32.9309C135.881 33.2457 136.385 33.4031 136.983 33.4031C137.603 33.4031 138.121 33.2387 138.538 32.9101C138.954 32.5769 139.269 32.1256 139.482 31.5562C139.7 30.9869 139.808 30.3459 139.808 29.633C139.808 28.9295 139.702 28.2977 139.489 27.7376C139.281 27.1776 138.966 26.7355 138.545 26.4115C138.128 26.0875 137.607 25.9255 136.983 25.9255C136.381 25.9255 135.872 26.0806 135.455 26.3907C135.043 26.7008 134.731 27.1336 134.518 27.689C134.305 28.2445 134.198 28.8925 134.198 29.633ZM147.335 35.2013C146.659 35.2013 146.048 35.0763 145.502 34.8264C144.955 34.5718 144.523 34.2038 144.203 33.7224C143.888 33.2411 143.731 32.6509 143.731 31.952C143.731 31.3503 143.847 30.855 144.078 30.4662C144.31 30.0774 144.622 29.7696 145.016 29.5428C145.409 29.316 145.849 29.1447 146.335 29.029C146.821 28.9133 147.316 28.8253 147.821 28.7652C148.459 28.6911 148.978 28.6309 149.376 28.5847C149.774 28.5337 150.063 28.4527 150.244 28.3417C150.424 28.2306 150.514 28.0501 150.514 27.8001V27.7515C150.514 27.1452 150.343 26.6754 150.001 26.3421C149.663 26.0088 149.158 25.8422 148.487 25.8422C147.788 25.8422 147.237 25.9973 146.835 26.3074C146.437 26.6129 146.161 26.9531 146.008 27.328L144.057 26.8836C144.289 26.2356 144.627 25.7126 145.071 25.3145C145.52 24.9118 146.036 24.6202 146.619 24.4397C147.203 24.2546 147.816 24.162 148.459 24.162C148.885 24.162 149.336 24.2129 149.813 24.3148C150.295 24.412 150.743 24.5925 151.16 24.8563C151.581 25.1201 151.926 25.4974 152.195 25.988C152.463 26.474 152.597 27.1058 152.597 27.8834V34.9652H150.57V33.5072H150.487C150.352 33.7757 150.151 34.0395 149.883 34.2987C149.614 34.5579 149.269 34.7731 148.848 34.9444C148.427 35.1157 147.922 35.2013 147.335 35.2013ZM147.786 33.535C148.36 33.535 148.85 33.4216 149.258 33.1948C149.67 32.968 149.982 32.6717 150.195 32.3061C150.413 31.9358 150.521 31.54 150.521 31.1188V29.7441C150.447 29.8182 150.304 29.8876 150.091 29.9524C149.883 30.0126 149.644 30.0658 149.376 30.1121C149.107 30.1538 148.846 30.1931 148.591 30.2301C148.337 30.2625 148.124 30.2903 147.952 30.3135C147.55 30.3644 147.182 30.45 146.849 30.5703C146.52 30.6907 146.256 30.8643 146.057 31.0911C145.863 31.3132 145.765 31.6095 145.765 31.9798C145.765 32.4935 145.955 32.8823 146.335 33.1462C146.714 33.4054 147.198 33.535 147.786 33.535ZM155.362 34.9652V24.3009H157.369V25.9949H157.48C157.674 25.421 158.017 24.9697 158.507 24.6411C159.003 24.3078 159.563 24.1412 160.188 24.1412C160.317 24.1412 160.47 24.1458 160.646 24.1551C160.826 24.1643 160.968 24.1759 161.069 24.1898V26.1755C160.986 26.1523 160.838 26.1269 160.625 26.0991C160.412 26.0667 160.199 26.0505 159.986 26.0505C159.496 26.0505 159.058 26.1546 158.674 26.3629C158.295 26.5666 157.994 26.8512 157.771 27.2169C157.549 27.5779 157.438 27.9899 157.438 28.4527V34.9652H155.362ZM165.874 35.2013C165.198 35.2013 164.587 35.0763 164.041 34.8264C163.495 34.5718 163.062 34.2038 162.743 33.7224C162.428 33.2411 162.271 32.6509 162.271 31.952C162.271 31.3503 162.386 30.855 162.618 30.4662C162.849 30.0774 163.162 29.7696 163.555 29.5428C163.948 29.316 164.388 29.1447 164.874 29.029C165.36 28.9133 165.855 28.8253 166.36 28.7652C166.999 28.6911 167.517 28.6309 167.915 28.5847C168.313 28.5337 168.602 28.4527 168.783 28.3417C168.964 28.2306 169.054 28.0501 169.054 27.8001V27.7515C169.054 27.1452 168.883 26.6754 168.54 26.3421C168.202 26.0088 167.698 25.8422 167.026 25.8422C166.328 25.8422 165.777 25.9973 165.374 26.3074C164.976 26.6129 164.701 26.9531 164.548 27.328L162.597 26.8836C162.828 26.2356 163.166 25.7126 163.61 25.3145C164.059 24.9118 164.576 24.6202 165.159 24.4397C165.742 24.2546 166.355 24.162 166.999 24.162C167.424 24.162 167.876 24.2129 168.353 24.3148C168.834 24.412 169.283 24.5925 169.699 24.8563C170.121 25.1201 170.465 25.4974 170.734 25.988C171.002 26.474 171.137 27.1058 171.137 27.8834V34.9652H169.109V33.5072H169.026C168.892 33.7757 168.69 34.0395 168.422 34.2987C168.153 34.5579 167.809 34.7731 167.387 34.9444C166.966 35.1157 166.462 35.2013 165.874 35.2013ZM166.325 33.535C166.899 33.535 167.39 33.4216 167.797 33.1948C168.209 32.968 168.521 32.6717 168.734 32.3061C168.952 31.9358 169.061 31.54 169.061 31.1188V29.7441C168.987 29.8182 168.843 29.8876 168.63 29.9524C168.422 30.0126 168.184 30.0658 167.915 30.1121C167.647 30.1538 167.385 30.1931 167.131 30.2301C166.876 30.2625 166.663 30.2903 166.492 30.3135C166.089 30.3644 165.721 30.45 165.388 30.5703C165.059 30.6907 164.795 30.8643 164.596 31.0911C164.402 31.3132 164.305 31.6095 164.305 31.9798C164.305 32.4935 164.495 32.8823 164.874 33.1462C165.254 33.4054 165.737 33.535 166.325 33.535ZM184.054 24.3009V25.9672H178.229V24.3009H184.054ZM179.791 21.7459H181.867V31.834C181.867 32.2366 181.927 32.5398 182.047 32.7435C182.168 32.9425 182.323 33.0791 182.513 33.1531C182.707 33.2225 182.918 33.2573 183.144 33.2573C183.311 33.2573 183.457 33.2457 183.582 33.2225C183.707 33.1994 183.804 33.1809 183.873 33.167L184.248 34.8819C184.128 34.9282 183.957 34.9745 183.735 35.0208C183.512 35.0717 183.235 35.0995 182.901 35.1041C182.355 35.1133 181.846 35.0161 181.374 34.8125C180.902 34.6088 180.52 34.2941 180.228 33.8682C179.937 33.4424 179.791 32.9078 179.791 32.2644V21.7459ZM190.728 35.1805C189.728 35.1805 188.856 34.9513 188.11 34.4931C187.365 34.0349 186.787 33.3938 186.375 32.5699C185.963 31.746 185.757 30.7833 185.757 29.6816C185.757 28.5754 185.963 27.608 186.375 26.7795C186.787 25.951 187.365 25.3076 188.11 24.8494C188.856 24.3911 189.728 24.162 190.728 24.162C191.728 24.162 192.6 24.3911 193.345 24.8494C194.091 25.3076 194.669 25.951 195.081 26.7795C195.493 27.608 195.699 28.5754 195.699 29.6816C195.699 30.7833 195.493 31.746 195.081 32.5699C194.669 33.3938 194.091 34.0349 193.345 34.4931C192.6 34.9513 191.728 35.1805 190.728 35.1805ZM190.735 33.4378C191.383 33.4378 191.92 33.2665 192.346 32.924C192.771 32.5815 193.086 32.1256 193.29 31.5562C193.498 30.9869 193.602 30.3597 193.602 29.6747C193.602 28.9943 193.498 28.3694 193.29 27.8001C193.086 27.2262 192.771 26.7656 192.346 26.4185C191.92 26.0713 191.383 25.8977 190.735 25.8977C190.082 25.8977 189.541 26.0713 189.11 26.4185C188.684 26.7656 188.367 27.2262 188.159 27.8001C187.955 28.3694 187.854 28.9943 187.854 29.6747C187.854 30.3597 187.955 30.9869 188.159 31.5562C188.367 32.1256 188.684 32.5815 189.11 32.924C189.541 33.2665 190.082 33.4378 190.735 33.4378ZM202.008 35.1735C201.148 35.1735 200.379 34.9537 199.703 34.5139C199.032 34.0696 198.505 33.4378 198.12 32.6185C197.741 31.7946 197.551 30.8064 197.551 29.6539C197.551 28.5013 197.743 27.5154 198.127 26.6962C198.516 25.8769 199.048 25.2497 199.724 24.8146C200.4 24.3796 201.166 24.162 202.022 24.162C202.684 24.162 203.217 24.2731 203.619 24.4953C204.027 24.7128 204.341 24.9674 204.563 25.259C204.79 25.5506 204.966 25.8075 205.091 26.0297H205.216V20.7461H207.292V34.9652H205.265V33.3059H205.091C204.966 33.5327 204.786 33.7919 204.55 34.0835C204.318 34.3751 203.999 34.6296 203.591 34.8472C203.184 35.0647 202.656 35.1735 202.008 35.1735ZM202.467 33.4031C203.064 33.4031 203.568 33.2457 203.98 32.9309C204.397 32.6116 204.712 32.1695 204.924 31.6048C205.142 31.0401 205.251 30.3829 205.251 29.633C205.251 28.8925 205.144 28.2445 204.931 27.689C204.718 27.1336 204.406 26.7008 203.994 26.3907C203.582 26.0806 203.073 25.9255 202.467 25.9255C201.842 25.9255 201.321 26.0875 200.905 26.4115C200.488 26.7355 200.173 27.1776 199.96 27.7376C199.752 28.2977 199.648 28.9295 199.648 29.633C199.648 30.3459 199.754 30.9869 199.967 31.5562C200.18 32.1256 200.495 32.5769 200.911 32.9101C201.333 33.2387 201.851 33.4031 202.467 33.4031ZM214.747 35.1805C213.747 35.1805 212.875 34.9513 212.13 34.4931C211.384 34.0349 210.806 33.3938 210.394 32.5699C209.982 31.746 209.776 30.7833 209.776 29.6816C209.776 28.5754 209.982 27.608 210.394 26.7795C210.806 25.951 211.384 25.3076 212.13 24.8494C212.875 24.3911 213.747 24.162 214.747 24.162C215.747 24.162 216.619 24.3911 217.364 24.8494C218.11 25.3076 218.688 25.951 219.1 26.7795C219.512 27.608 219.718 28.5754 219.718 29.6816C219.718 30.7833 219.512 31.746 219.1 32.5699C218.688 33.3938 218.11 34.0349 217.364 34.4931C216.619 34.9513 215.747 35.1805 214.747 35.1805ZM214.754 33.4378C215.402 33.4378 215.939 33.2665 216.365 32.924C216.791 32.5815 217.105 32.1256 217.309 31.5562C217.517 30.9869 217.621 30.3597 217.621 29.6747C217.621 28.9943 217.517 28.3694 217.309 27.8001C217.105 27.2262 216.791 26.7656 216.365 26.4185C215.939 26.0713 215.402 25.8977 214.754 25.8977C214.101 25.8977 213.56 26.0713 213.129 26.4185C212.703 26.7656 212.386 27.2262 212.178 27.8001C211.974 28.3694 211.873 28.9943 211.873 29.6747C211.873 30.3597 211.974 30.9869 212.178 31.5562C212.386 32.1256 212.703 32.5815 213.129 32.924C213.56 33.2665 214.101 33.4378 214.754 33.4378ZM230.027 26.9045L228.145 27.2377C228.066 26.997 227.941 26.7679 227.77 26.5504C227.604 26.3328 227.377 26.1546 227.09 26.0158C226.803 25.8769 226.444 25.8075 226.014 25.8075C225.426 25.8075 224.935 25.9394 224.542 26.2032C224.148 26.4624 223.952 26.798 223.952 27.21C223.952 27.5664 224.084 27.8533 224.347 28.0709C224.611 28.2884 225.037 28.4666 225.625 28.6055L227.319 28.9943C228.3 29.2211 229.032 29.5706 229.513 30.0427C229.994 30.5148 230.235 31.1281 230.235 31.8826C230.235 32.5213 230.05 33.0906 229.68 33.5905C229.314 34.0858 228.802 34.4746 228.145 34.7569C227.493 35.0393 226.736 35.1805 225.875 35.1805C224.681 35.1805 223.706 34.9259 222.952 34.4167C222.197 33.903 221.735 33.1739 221.563 32.2297L223.57 31.9242C223.695 32.4473 223.952 32.843 224.34 33.1115C224.729 33.3753 225.236 33.5072 225.861 33.5072C226.541 33.5072 227.085 33.366 227.493 33.0837C227.9 32.7967 228.103 32.4473 228.103 32.0353C228.103 31.702 227.979 31.422 227.729 31.1952C227.483 30.9684 227.106 30.7971 226.597 30.6814L224.792 30.2857C223.797 30.0589 223.061 29.6978 222.584 29.2026C222.112 28.7073 221.876 28.0801 221.876 27.321C221.876 26.6916 222.052 26.1407 222.403 25.6686C222.755 25.1965 223.241 24.8285 223.861 24.5647C224.482 24.2962 225.192 24.162 225.993 24.162C227.145 24.162 228.053 24.412 228.714 24.9118C229.376 25.4071 229.814 26.0713 230.027 26.9045Z" fill="black"/>
</svg>
